# xmcd
#
# Track frame offsets:
#	150
#	10470
#	23863
#	44070
#	53677
#	68841
#	86035
#	103922
#	116060
#	126572
#
# Disc length: 1934 seconds
#
# Revision: 4
# Processed by: cddbd v1.5.2PL0 Copyright (c) Steve Scherf et al.
# Submitted via: CDmax 1.9
#
DISCID=92078c0a
DTITLE=Craig Backstrom - Song Man
DYEAR=2011
DGENRE=Country
TTITLE0=Nobody At All
TTITLE1=I Don't Hart Anymore
TTITLE2=Daddy Rabbit
TTITLE3=I've Just Seen A Face
TTITLE4=Song Man
TTITLE5=Saunders Ferry Lane
TTITLE6=Takin' It Easy
TTITLE7=Don't Let The Sun Catch You Crying
TTITLE8=One Six Pack To Go
TTITLE9=Til The Very Last Song
EXTD=
EXTT0=
EXTT1=
EXTT2=
EXTT3=
EXTT4=
EXTT5=
EXTT6=
EXTT7=
EXTT8=
EXTT9=
PLAYORDER=
